<svg version="1" xmlns="http://www.w3.org/2000/svg" width="682.667" height="682.667" viewBox="0 0 512.000000 512.000000"><path d="M157.3 57.9c-3.2 7.7-3.3 7.6 6.5 7.9 17.2.4 25 2.6 30.8 8.7 10.6 11 8.4 27-13.4 99.5-1.4 4.7-2.7 8.9-2.8 9.5-.3 1.6-5.9 20.9-10.4 36-2.3 7.7-4.3 14.7-4.5 15.5-.2.8-1.6 5.5-3 10.5-1.5 4.9-3.7 12.6-5 17-1.3 4.4-3.5 12-5 17-1.5 4.9-3.1 10.3-3.5 12-.4 1.6-3.3 11.8-6.4 22.5-3.2 10.7-7.8 26.5-10.2 35-2.5 8.5-6.6 22.5-9 31-15.9 54.7-22.2 66.2-39.7 72.5-5.7 2.1-5.8 2.1-13.7 3.1-4.8.6-7.7.8-16.2 1.3-1.4.1-4.8 7.4-4.8 10.5 0 1.3 317.7 1.3 319.1-.1.4-.4 7.1-19.3 14.7-41.8 7.6-22.6 16.2-47.8 19.1-56.1 2.8-8.3 5.1-15.4 5.1-15.7 0-.4-2.4-.7-5.4-.7h-5.4l-6.8 11.2c-11.4 19-18.4 27.9-33 42.4-15 15-31.3 25-49.9 30.8-14.1 4.4-18.5 5.3-36.6 8-14.3 2.1-77.1 2.6-87.3.7-6.7-1.2-11.8-4.6-14.3-9.4-1.7-3.3-2.2-12.4-1.1-18.2 1.7-8.7 7.4-28.8 27.4-96.8 4.2-14.2 6.3-21.6 6.9-23.7.2-.8 1.3-4.7 2.5-8.5 4-13.5 5.9-20 6.8-23.5l.8-3.5 30.5-.1c35.5-.2 47.5 1.1 53.6 5.8 9.2 7.2 13.8 15.5 14.6 26.5.6 8.8-1.3 22.3-4.9 34.6-.5 1.6.1 1.8 5.7 1.5l6.3-.3 2.7-9.5c3.3-11.7 17.8-63.1 29.2-103.5 11.4-40.2 10.8-36.9 6.2-37-6.6-.1-7.5.7-10.9 8.5-7.6 17.9-19.5 33.3-30.5 39.8-9 5.2-23.6 9.2-39.6 10.6-7.3.7-55.6.8-56.3.2-.2-.3 1.4-6.7 3.6-14.3 11.8-40.3 19.5-67 19.7-68.3.1-.8.5-2.2.8-3 .3-.8 1.3-4 2.2-7 .8-3 2-6.9 2.5-8.5.5-1.7 4.6-15.8 9.1-31.5 4.4-15.7 8.5-28.9 9-29.4 1-1.1 71-1.2 87.4-.1 16.1 1 29.7 3.3 35.3 6 2.9 1.4 5.4 2.5 5.7 2.5 1.4 0 11.4 7.1 15 10.6 4.1 4 9.5 10.8 9.5 11.9 0 .4.6 2.1 1.4 3.8 2.7 6.2 3.6 12.3 3.1 22.7-.4 9.9-1 14.9-2 17.7-.3 1 1.2 1.3 5.5 1.3h5.9l1.5-5.3c1.9-6.7 7.5-28.4 8.2-31.7.2-1.4 1.2-5 2.1-8 .8-3 1.7-6.4 1.9-7.5.2-1.1 3-12.1 6.2-24.5l5.9-22.6h-297l-1.4 3.5z"/></svg>